<svg width="34" height="40" viewBox="0 0 34 40" fill="none" xmlns="http://www.w3.org/2000/svg">
    <path fill-rule="evenodd" clip-rule="evenodd"
        d="M0 20C0 12.8942 5.76036 7.13388 12.8661 7.13388H20.7739C27.8796 7.13388 33.64 12.8942 33.64 20C33.64 27.1058 27.8796 32.8661 20.7738 32.8661H12.8661C5.76035 32.8661 0 27.1058 0 20ZM12.8661 13.0968C9.0536 13.0968 5.96293 16.1875 5.96293 20C5.96293 23.8125 9.05359 26.9032 12.8661 26.9032H20.7738C24.5864 26.9032 27.677 23.8125 27.677 20C27.677 16.1875 24.5864 13.0968 20.7739 13.0968H12.8661Z"
        fill="white" />
    <path fill-rule="evenodd" clip-rule="evenodd"
        d="M14.732 40C14.3445 40 14.0304 39.6859 14.0304 39.2985V0.701522C14.0304 0.314082 14.3445 0 14.732 0H19.2918C19.6793 0 19.9934 0.314081 19.9934 0.70152V39.2985C19.9934 39.6859 19.6793 40 19.2918 40H14.732Z"
        fill="white" />
</svg>